<svg width="18" height="18" viewBox="0 0 18 18" fill="none" xmlns="http://www.w3.org/2000/svg">
<path d="M5.625 0C5.15812 0 4.78125 0.376875 4.78125 0.84375V2.25H3.09375C2.27415 2.25296 1.48896 2.57986 0.909413 3.15941C0.329864 3.73896 0.00296423 4.52415 0 5.34375L0 14.9062C0 16.605 1.395 18 3.09375 18H14.9062C16.605 18 18 16.605 18 14.9062V5.34375C18 3.645 16.605 2.25 14.9062 2.25H13.2188V0.84375C13.2188 -0.28125 11.5312 -0.28125 11.5312 0.84375V2.25H6.46875V0.84375C6.46875 0.376875 6.09188 0 5.625 0ZM3.09375 6.75H14.9062C15.6938 6.75 16.3125 7.36875 16.3125 8.15625V14.9062C16.3125 15.6938 15.6938 16.3125 14.9062 16.3125H3.09375C2.90866 16.314 2.72512 16.2786 2.55383 16.2085C2.38254 16.1384 2.22692 16.0348 2.09604 15.904C1.96516 15.7731 1.86163 15.6175 1.79149 15.4462C1.72135 15.2749 1.686 15.0913 1.6875 14.9062V8.15625C1.6875 7.36875 2.30625 6.75 3.09375 6.75ZM3.9375 8.4375V10.6875H6.1875V8.4375H3.9375ZM7.875 8.4375V10.6875H10.125V8.4375H7.875ZM11.8125 8.4375V10.6875H14.0625V8.4375H11.8125ZM3.9375 12.375V14.625H6.1875V12.375H3.9375ZM7.875 12.375V14.625H10.125V12.375H7.875ZM11.8125 12.375V14.625H14.0625V12.375H11.8125Z" fill="#999999"/>
</svg>
