<svg width="18" height="18" viewBox="0 0 18 18" fill="none" xmlns="http://www.w3.org/2000/svg">
<g clip-path="url(#clip0_14_2569)">
<path d="M9 0C4.03875 0 0 4.03875 0 9C0 10.5694 0.466875 12.0825 1.2375 13.4437L0.10125 16.2169C-0.106875 16.7231 0.05625 17.3025 0.399375 17.6344C0.748125 17.9719 1.33312 18.1069 1.82812 17.8819L4.47187 16.6894C5.83722 17.5226 7.4007 17.9751 9 18C13.9613 18 18 13.9613 18 9C18 4.03875 13.9613 0 9 0ZM9 1.6875C13.05 1.6875 16.3125 4.95 16.3125 9C16.3139 10.325 15.9546 11.6255 15.2733 12.7619C14.592 13.8984 13.6142 14.828 12.4448 15.4511C11.2754 16.0742 9.95854 16.3674 8.63526 16.2991C7.31197 16.2309 6.03221 15.8039 4.93313 15.0638L4.53937 14.805L2.03625 15.93L3.105 13.3425L2.86313 12.9769C2.14768 11.8729 1.7433 10.5964 1.6926 9.28182C1.6419 7.96727 1.94676 6.66339 2.57504 5.50759C3.20333 4.3518 4.13178 3.38689 5.26254 2.71458C6.39329 2.04226 7.68447 1.68744 9 1.6875Z" fill="#999999"/>
</g>
<defs>
<clipPath id="clip0_14_2569">
<rect width="18" height="18" fill="white"/>
</clipPath>
</defs>
</svg>
