<svg width="14" height="18" viewBox="0 0 14 18" fill="none" xmlns="http://www.w3.org/2000/svg">
<g clip-path="url(#clip0_1_108)">
<path d="M3.20833 0C1.44667 0 0 1.395 0 3.09375V14.9062C0 16.605 1.44667 18 3.20833 18H10.7917C12.5533 18 14 16.605 14 14.9062V5.625L8.16667 0H6.41667H3.20833ZM3.20833 1.6875H6.41667V5.90625C6.41667 6.67294 7.07992 7.3125 7.875 7.3125H12.25V14.9062C12.25 15.6926 11.6072 16.3125 10.7917 16.3125H3.20833C3.01635 16.3142 2.82594 16.2789 2.64823 16.2088C2.47053 16.1387 2.30908 16.0352 2.17332 15.9043C2.03756 15.7734 1.9302 15.6177 1.85752 15.4463C1.78484 15.275 1.74829 15.0914 1.75 14.9062V3.09375C1.75 2.30737 2.39283 1.6875 3.20833 1.6875ZM8.16667 2.31806L11.5961 5.625H8.16667V2.31806Z" fill="#999999"/>
</g>
<defs>
<clipPath id="clip0_1_108">
<rect width="14" height="18" fill="white"/>
</clipPath>
</defs>
</svg>
