<svg width="22" height="22" viewBox="0 0 22 22" fill="none" xmlns="http://www.w3.org/2000/svg">
<g clip-path="url(#clip0_213_2554)">
<path d="M11 0C4.92533 0 0 4.92533 0 11C0 16.49 4.02193 21.0409 9.28139 21.867V14.1804H6.48768V11H9.28139V8.57602C9.28139 8.40373 9.28783 8.23626 9.30046 8.07368C9.47742 5.79633 10.8752 4.47903 12.9757 4.31352C13.1257 4.3017 13.2793 4.29574 13.4364 4.29574C14.6398 4.29574 15.899 4.51075 15.899 4.51075V7.21782H14.5114C14.4261 7.21782 14.3444 7.22115 14.2662 7.22757C14.1948 7.23344 14.1273 7.2426 14.0617 7.2535C14.0555 7.25454 14.0484 7.25488 14.0423 7.25596H14.0422C13.9711 7.2684 13.9033 7.28376 13.8388 7.30181C13.7098 7.33793 13.594 7.38485 13.4904 7.44101C13.4386 7.46909 13.3898 7.49947 13.3439 7.53196C13.2522 7.59694 13.1722 7.67033 13.1028 7.75053C13.0681 7.79063 13.0361 7.83246 13.0066 7.87575C12.9772 7.91905 12.9502 7.96385 12.9257 8.00995C12.9082 8.0429 12.8933 8.07724 12.8782 8.11144C12.8722 8.1252 12.8649 8.13832 12.8592 8.15226C12.8447 8.18785 12.8327 8.22459 12.8206 8.26128C12.8162 8.27452 12.8107 8.28725 12.8066 8.30062C12.7913 8.35106 12.7781 8.40242 12.767 8.45445C12.7586 8.49406 12.7523 8.53437 12.7462 8.5747C12.7442 8.58744 12.7413 8.59989 12.7396 8.61269C12.7253 8.71916 12.7186 8.82762 12.7186 8.93643V11H15.7691L15.2818 14.1804H12.7186V21.867C17.978 21.0425 22 16.4915 22 11C22 4.92533 17.0747 0 11 0Z" fill="white"/>
</g>
<defs>
<clipPath id="clip0_213_2554">
<rect width="22" height="22" fill="white"/>
</clipPath>
</defs>
</svg>
