<svg width="135" height="40" viewBox="0 0 135 40" fill="none" xmlns="http://www.w3.org/2000/svg">
<g clip-path="url(#clip0_213_2599)">
<path d="M129.998 40H5.00281C2.25285 40 0.00292969 37.75 0.00292969 35.0001V5.00064C0.00292969 2.25067 2.25285 0.000732422 5.00281 0.000732422H129.998C132.748 0.000732422 134.998 2.25067 134.998 5.00064V35.0001C134.998 37.75 132.748 40 129.998 40Z" fill="#100F0D"/>
<path d="M129.998 0.000732422H5.00281C2.25285 0.000732422 0.00292969 2.25067 0.00292969 5.00064V35.0001C0.00292969 37.75 2.25285 40 5.00281 40H129.998C132.748 40 134.998 37.75 134.998 35.0001V5.00064C134.998 2.25067 132.748 0.000732422 129.998 0.000732422ZM129.998 0.800312C132.314 0.800312 134.198 2.6847 134.198 5.00064V35.0001C134.198 37.316 132.314 39.2004 129.998 39.2004H5.00281C2.68688 39.2004 0.80333 37.316 0.80333 35.0001V5.00064C0.80333 2.6847 2.68688 0.800312 5.00281 0.800312H129.998Z" fill="#A2A2A1"/>
<path d="M106.935 30.0002H108.801V17.4983H106.935V30.0002ZM123.742 22.0021L121.603 27.422H121.539L119.319 22.0021H117.309L120.639 29.5772L118.74 33.7911H120.686L125.817 22.0025L123.742 22.0021ZM113.159 28.5801C112.549 28.5801 111.696 28.2742 111.696 27.5184C111.696 26.5535 112.758 26.1836 113.674 26.1836C114.494 26.1836 114.881 26.3602 115.379 26.6016C115.234 27.7598 114.237 28.5801 113.159 28.5801ZM113.385 21.7287C112.034 21.7287 110.635 22.324 110.056 23.6428L111.712 24.3341C112.066 23.6428 112.725 23.4178 113.417 23.4178C114.382 23.4178 115.363 23.9963 115.379 25.0259V25.1544C115.041 24.9614 114.317 24.6721 113.433 24.6721C111.647 24.6721 109.83 25.6528 109.83 27.4864C109.83 29.159 111.294 30.2367 112.934 30.2367C114.188 30.2367 114.881 29.6738 115.314 29.0141H115.379V29.9797H117.181V25.1864C117.181 22.9669 115.523 21.7287 113.385 21.7287ZM101.853 23.524H99.1992V19.239H101.853C103.248 19.239 104.04 20.3937 104.04 21.3814C104.04 22.3502 103.248 23.524 101.853 23.524ZM101.805 17.4986H97.3341V30.0005H99.1993V25.2643H101.805C103.873 25.2643 105.906 23.7674 105.906 21.3819C105.906 18.9968 103.873 17.4986 101.805 17.4986ZM77.4249 28.5822C76.1358 28.5822 75.0569 27.5025 75.0569 26.0209C75.0569 24.5221 76.1358 23.4272 77.4249 23.4272C78.6976 23.4272 79.6964 24.5222 79.6964 26.0209C79.6964 27.5025 78.6976 28.5822 77.4249 28.5822ZM79.5674 22.7019H79.5029C79.0842 22.2027 78.2783 21.7515 77.264 21.7515C75.137 21.7515 73.1879 23.6206 73.1879 26.0209C73.1879 28.4049 75.137 30.2576 77.264 30.2576C78.2783 30.2576 79.0842 29.8064 79.5029 29.2912H79.5674V29.9029C79.5674 31.5306 78.6976 32.4001 77.296 32.4001C76.1526 32.4001 75.4437 31.5786 75.1535 30.886L73.5266 31.5625C73.9934 32.6898 75.2336 34.0758 77.2961 34.0758C79.4874 34.0758 81.3401 32.7867 81.3401 29.645V22.0092H79.5675L79.5674 22.7019ZM82.6291 29.9998H84.497V17.498H82.6291V29.9998ZM87.2521 25.8757C87.204 24.2323 88.5254 23.3948 89.4755 23.3948C90.2168 23.3948 90.8445 23.7655 91.0547 24.2968L87.2521 25.8757ZM93.0515 24.4577C92.6972 23.5078 91.618 21.7515 89.411 21.7515C87.2196 21.7515 85.3994 23.4753 85.3994 26.0046C85.3994 28.3889 87.204 30.2576 89.62 30.2576C91.5692 30.2576 92.6973 29.0659 93.1648 28.3729L91.7148 27.4061C91.2313 28.1151 90.5711 28.5823 89.62 28.5823C88.67 28.5823 87.9931 28.1472 87.5588 27.2933L93.2449 24.9414L93.0515 24.4577ZM47.7448 23.0566V24.8608H52.0622C51.9333 25.8757 51.595 26.6167 51.0794 27.1323C50.4509 27.7604 49.4681 28.4534 47.7447 28.4534C45.0865 28.4534 43.0085 26.3108 43.0085 23.6527C43.0085 20.9945 45.0865 18.8517 47.7447 18.8517C49.1786 18.8517 50.2255 19.4156 50.9988 20.1406L52.2719 18.8676C51.1922 17.8367 49.7586 17.0474 47.7447 17.0474C44.1033 17.0474 41.0425 20.0117 41.0425 23.6527C41.0425 27.2933 44.1033 30.2576 47.7447 30.2576C49.7099 30.2576 51.1922 29.6132 52.352 28.405C53.5442 27.2128 53.9148 25.5374 53.9148 24.184C53.9148 23.7656 53.8823 23.3789 53.8179 23.0566H47.7448ZM58.8238 28.5822C57.5347 28.5822 56.423 27.5189 56.423 26.0046C56.423 24.4741 57.5347 23.4273 58.8238 23.4273C60.1124 23.4273 61.224 24.4741 61.224 26.0046C61.224 27.5189 60.1124 28.5822 58.8238 28.5822ZM58.8238 21.7515C56.471 21.7515 54.5543 23.5397 54.5543 26.0046C54.5543 28.4534 56.471 30.2576 58.8238 30.2576C61.1756 30.2576 63.0928 28.4534 63.0928 26.0046C63.0928 23.5397 61.1756 21.7515 58.8238 21.7515ZM68.1365 28.5822C66.8483 28.5822 65.7363 27.5189 65.7363 26.0046C65.7363 24.4741 66.8484 23.4273 68.1365 23.4273C69.4256 23.4273 70.5369 24.4741 70.5369 26.0046C70.5369 27.5189 69.4256 28.5822 68.1365 28.5822ZM68.1365 21.7515C65.7847 21.7515 63.8679 23.5397 63.8679 26.0046C63.8679 28.4534 65.7847 30.2576 68.1365 30.2576C70.4893 30.2576 72.4061 28.4534 72.4061 26.0046C72.4061 23.5397 70.4893 21.7515 68.1365 21.7515Z" fill="white"/>
<path d="M20.7165 19.4245L10.071 30.724C10.0714 30.7263 10.0722 30.7283 10.0726 30.7307C10.3991 31.9577 11.5198 32.8612 12.8499 32.8612C13.3816 32.8612 13.8807 32.7174 14.3088 32.4651L14.3428 32.4451L26.3263 25.5301L20.7165 19.4245Z" fill="#EB3131"/>
<path d="M31.4872 17.5006L31.477 17.4937L26.3034 14.4944L20.4746 19.6811L26.3236 25.5294L31.47 22.56C32.3722 22.0729 32.9848 21.1217 32.9848 20.0248C32.9848 18.9358 32.3806 17.9893 31.4872 17.5006Z" fill="#F6B60B"/>
<path d="M10.0696 9.27759C10.0056 9.51358 9.97192 9.76078 9.97192 10.0175V29.9849C9.97192 30.2411 10.0052 30.4891 10.07 30.7243L21.083 19.7134L10.0696 9.27759Z" fill="#5778C5"/>
<path d="M20.7953 20.0011L26.3058 14.4922L14.3358 7.55211C13.9007 7.29151 13.3929 7.14111 12.8495 7.14111C11.5195 7.14111 10.3973 8.04622 10.0707 9.27465C10.0703 9.27585 10.0703 9.27668 10.0703 9.27773L20.7953 20.0011Z" fill="#3BAD49"/>
<path d="M47.3947 9.78163H44.4776V10.5035H46.6635C46.6041 11.0926 46.3698 11.5551 45.9745 11.891C45.5792 12.227 45.0745 12.3957 44.4776 12.3957C43.8229 12.3957 43.2682 12.1676 42.8137 11.7145C42.3683 11.252 42.1418 10.6801 42.1418 9.99109C42.1418 9.30211 42.3683 8.73019 42.8137 8.26773C43.2682 7.81464 43.8229 7.58805 44.4776 7.58805C44.8136 7.58805 45.1339 7.64585 45.4276 7.77245C45.7213 7.89894 45.9572 8.07554 46.1416 8.30214L46.6963 7.74745C46.4447 7.46146 46.126 7.24275 45.7306 7.08336C45.3353 6.92397 44.9229 6.84747 44.4775 6.84747C43.6041 6.84747 42.8636 7.15056 42.2589 7.75527C41.6542 8.36146 41.3511 9.10835 41.3511 9.99111C41.3511 10.8739 41.6542 11.6224 42.2589 12.2271C42.8636 12.8317 43.6041 13.1349 44.4775 13.1349C45.3947 13.1349 46.1259 12.8411 46.6884 12.2442C47.1837 11.7474 47.4368 11.0755 47.4368 10.2349C47.4368 10.0927 47.4197 9.94102 47.3947 9.78163ZM48.5248 6.98171V13.0004H52.0387V12.2613H49.2982V10.352H51.7701V9.63016H49.2982V7.72237H52.0387V6.98169L48.5248 6.98171ZM56.9661 7.7224V6.98171H52.8302V7.7224H54.5115V13.0004H55.2849V7.7224H56.9661ZM60.7104 6.98171H59.937V13.0004H60.7104V6.98171ZM65.8154 7.7224V6.98171H61.6796V7.7224H63.3607V13.0004H64.1341V7.7224H65.8154ZM73.6199 7.76459C73.023 7.15051 72.2918 6.84741 71.4183 6.84741C70.5434 6.84741 69.8122 7.1505 69.2153 7.75522C68.6184 8.35211 68.3247 9.1005 68.3247 9.99106C68.3247 10.8816 68.6184 11.6301 69.2153 12.227C69.8122 12.8316 70.5434 13.1349 71.4183 13.1349C72.2839 13.1349 73.023 12.8317 73.6199 12.227C74.2168 11.6302 74.5104 10.8817 74.5104 9.99106C74.5104 9.1083 74.2167 8.36137 73.6199 7.76459ZM69.77 8.26768C70.2153 7.81459 70.7622 7.588 71.4183 7.588C72.073 7.588 72.6199 7.8146 73.0574 8.26768C73.5027 8.71297 73.7214 9.29414 73.7214 9.99104C73.7214 10.6895 73.5027 11.2691 73.0574 11.7145C72.6199 12.1676 72.073 12.3957 71.4183 12.3957C70.7622 12.3957 70.2153 12.1676 69.77 11.7145C69.334 11.2598 69.1153 10.6895 69.1153 9.99104C69.1153 9.29415 69.334 8.72233 69.77 8.26768ZM76.3479 9.25206L76.3152 8.09105H76.3479L79.4073 13.0004H80.215V6.98165H79.4416V10.5034L79.4744 11.6645H79.4416L76.5167 6.98165H75.5745V13.0004H76.3479V9.25206Z" fill="white" stroke="white" stroke-width="0.26666" stroke-miterlimit="10"/>
</g>
<defs>
<clipPath id="clip0_213_2599">
<rect width="135" height="40" fill="white"/>
</clipPath>
</defs>
</svg>
