<svg width="18" height="18" viewBox="0 0 18 18" fill="none" xmlns="http://www.w3.org/2000/svg">
<g clip-path="url(#clip0_1_103)">
<path d="M9.00004 1.55457e-05C8.24629 1.55457e-05 7.49816 0.247516 6.86816 0.731266L1.14754 5.20314C0.787778 5.4875 0.497484 5.85004 0.298665 6.26327C0.0998468 6.6765 -0.00227643 7.12957 3.84942e-05 7.58814L0.0169135 15.0188C0.0169135 16.6556 1.31066 18 2.89129 18H7.31816V12.8925C7.31816 12.1838 7.85254 11.6269 8.53879 11.6269H9.46129C10.1419 11.6269 10.6763 12.1894 10.6763 12.8925V18H15.1313C16.7063 18 18 16.65 18 15.0188V7.58252C18 6.64314 17.5725 5.76002 16.8525 5.19752L11.1319 0.731266C10.5213 0.255182 9.76867 -0.00230478 8.99441 1.55457e-05H9.00004Z" fill="white"/>
</g>
<defs>
<clipPath id="clip0_1_103">
<rect width="18" height="18" fill="white"/>
</clipPath>
</defs>
</svg>
