<svg width="22" height="22" viewBox="0 0 22 22" fill="none" xmlns="http://www.w3.org/2000/svg">
<g clip-path="url(#clip0_213_2559)">
<path d="M15.452 0.00634766H6.56065C4.82274 0.00767191 3.1564 0.698606 1.92752 1.92743C0.698637 3.15626 0.00767197 4.82253 0.00634766 6.56035V15.4513C0.00740711 17.1893 0.698255 18.8559 1.92717 20.0849C3.15608 21.314 4.82257 22.005 6.56065 22.0063H15.452C17.19 22.0048 18.8564 21.3136 20.0852 20.0846C21.3141 18.8556 22.005 17.1893 22.0063 15.4513V6.56035C22.0056 4.82236 21.3148 3.15579 20.0858 1.92685C18.8568 0.697907 17.1901 0.00714265 15.452 0.00634766ZM19.7942 15.4513C19.794 16.6028 19.3364 17.7071 18.5222 18.5213C17.7079 19.3355 16.6036 19.7931 15.452 19.7933H6.56065C5.99047 19.7933 5.42587 19.681 4.89911 19.4628C4.37235 19.2446 3.89373 18.9248 3.4906 18.5215C3.08747 18.1183 2.76772 17.6397 2.54962 17.1129C2.33151 16.5861 2.21932 16.0215 2.21945 15.4513V6.56035C2.21932 5.99024 2.33152 5.4257 2.54963 4.89896C2.76775 4.37223 3.08752 3.89363 3.49066 3.4905C3.89381 3.08738 4.37243 2.76763 4.89919 2.54952C5.42594 2.33141 5.99051 2.21922 6.56065 2.21935H15.452C16.6033 2.21961 17.7074 2.67705 18.5214 3.49109C19.3355 4.30513 19.793 5.40912 19.7932 6.56035L19.7942 15.4513Z" fill="white"/>
<path d="M11.1285 5.185C7.99893 5.185 5.45581 7.78029 5.45581 10.9717C5.45581 14.1632 7.99993 16.7585 11.1285 16.7585C14.257 16.7585 16.8011 14.1632 16.8011 10.9717C16.8011 7.78029 14.258 5.185 11.1285 5.185ZM11.1285 14.5071C10.2093 14.5072 9.32778 14.1349 8.67775 13.472C8.02773 12.8091 7.66247 11.9099 7.66234 10.9723C7.66221 10.0346 8.02721 9.13535 8.67705 8.47225C9.32688 7.80915 10.2083 7.43655 11.1275 7.43642C12.0466 7.43628 12.9282 7.80862 13.5782 8.47153C14.2282 9.13444 14.5935 10.0336 14.5936 10.9712C14.5937 11.9089 14.2287 12.8081 13.5789 13.4712C12.929 14.1343 12.0476 14.5069 11.1285 14.5071ZM16.8131 3.84106C17.0818 3.84127 17.3445 3.92274 17.5679 4.07518C17.7913 4.22763 17.9654 4.44421 18.0681 4.69754C18.1709 4.95088 18.1977 5.22961 18.1452 5.4985C18.0928 5.76739 17.9633 6.01438 17.7733 6.20825C17.5832 6.40211 17.3411 6.53416 17.0775 6.5877C16.8139 6.64123 16.5407 6.61386 16.2924 6.50903C16.044 6.4042 15.8317 6.22663 15.6823 5.99875C15.5328 5.77087 15.453 5.50291 15.4528 5.22874C15.4528 4.46369 15.9614 3.84106 16.8131 3.84106Z" fill="white"/>
</g>
<defs>
<clipPath id="clip0_213_2559">
<rect width="22" height="22" fill="white"/>
</clipPath>
</defs>
</svg>
