<svg width="17" height="16" viewBox="0 0 17 16" fill="none" xmlns="http://www.w3.org/2000/svg">
<path d="M11.8247 0.000131273C10.6235 0.000131273 9.45582 0.533465 8.5001 1.422C7.51728 0.507865 6.28159 -0.00946873 5.05387 0.000131273C3.75867 0.0107979 2.47198 0.602798 1.49873 1.67693C-0.49931 3.8844 -0.499842 7.40013 1.49873 9.6076L6.47284 15.102C7.5566 16.2993 9.44307 16.2993 10.5274 15.102L15.5015 9.6076C17.4995 7.3996 17.4995 3.8844 15.5015 1.67693C14.5027 0.572931 13.1629 0.000131273 11.8247 0.000131273ZM11.8247 1.60546C12.723 1.60546 13.6219 1.99746 14.3301 2.77986C15.7458 4.34413 15.7464 6.93987 14.3301 8.50467L9.35595 13.9991C8.88632 14.518 8.11388 14.518 7.64425 13.9991L2.67014 8.50467C1.25435 6.9404 1.25435 4.3436 2.67014 2.77986C4.08433 1.2172 6.26672 1.2172 7.68038 2.77986H7.68144C7.78593 2.89305 7.91258 2.98335 8.05345 3.04511C8.19432 3.10686 8.34638 3.13874 8.5001 3.13874C8.65382 3.13874 8.80588 3.10686 8.94675 3.04511C9.08762 2.98335 9.21427 2.89305 9.31876 2.77986H9.31982C10.028 1.99746 10.9258 1.60546 11.8247 1.60546ZM8.1516 1.6748L8.14841 1.67693V1.67586C8.14894 1.6748 8.1516 1.67533 8.1516 1.6748ZM8.8486 1.6748C8.84966 1.67533 8.85126 1.6748 8.85179 1.67586V1.67693L8.8486 1.6748Z" fill="#999999"/>
</svg>
