<svg
    width="21"
    height="16"
    viewBox="0 0 21 16"
    fill="none"
    xmlns="http://www.w3.org/2000/svg"
>
    <g clipPath="url(#clip0_1_2022)">
        <path d="M10.5 4.4768C8.53651 4.4768 6.9241 6.06464 6.9241 7.99936C6.9241 9.93408 8.53651 11.5226 10.4994 11.5226C12.4629 11.5226 14.0753 9.93408 14.0753 7.99936C14.0753 6.06528 12.4629 4.47744 10.4994 4.47744L10.5 4.4768ZM10.5 6.40512C11.4043 6.40512 12.1177 7.10848 12.1177 8C12.1177 8.89088 11.4043 9.5936 10.4994 9.5936C9.59504 9.5936 8.8817 8.89088 8.8817 8C8.8817 7.10784 9.59504 6.4064 10.4994 6.4064L10.5 6.40512ZM10.5 0C3.69469 0 0.102383 7.56864 0.102383 7.56864C-0.0354297 7.84 -0.0354297 8.16 0.102383 8.43136C0.102383 8.43136 3.69469 16.0045 10.5 16.0045C17.3053 16.0045 20.8963 8.43136 20.8963 8.43136C21.0341 8.16 21.0341 7.84 20.8963 7.56864C20.8963 7.56864 17.3053 0 10.5 0ZM10.5 1.92896C15.4481 1.92896 18.4052 7.25184 18.8252 8C18.4052 8.7488 15.4481 14.0755 10.4994 14.0755C5.55123 14.0755 2.59416 8.74816 2.17416 8C2.59416 7.2512 5.55188 1.92896 10.5 1.92896Z" fill="#999999"/>

        <path d="M19 2L2 14" stroke="#999999" strokeWidth="2" strokeLinecap="round"/>
    </g>
    <defs>
        <clipPath id="clip0_1_2022">
            <rect width="21" height="16" fill="white"/>
        </clipPath>
    </defs>
</svg>